<?xml version="1.0" encoding="utf-8"?>
<svg version="1.1" xmlns="http://www.w3.org/2000/svg" xmlns:xlink="http://www.w3.org/1999/xlink" x="0px" y="0px"
	 viewBox="0 0 118.15 36.03" style="enable-background:new 0 0 113.2 36;" xml:space="preserve" fill="#808080">
<path d="M43.36,17.19h1.98v10.54h-1.98v-1.22c-0.99,0.83-2.23,1.45-3.54,1.45c-1.47,0-2.85-0.55-3.91-1.59    c-1.04-1.06-1.61-2.44-1.61-3.91s0.58-2.85,1.61-3.91c1.06-1.04,2.44-1.59,3.91-1.59c1.31,0,2.55,0.62,3.54,1.45V17.19z     M43.36,22.46c0-1.96-1.59-3.57-3.54-3.57s-3.54,1.61-3.54,3.57s1.59,3.57,3.54,3.57S43.36,24.42,43.36,22.46z"/>
<path d="M50.17,18.27c0.67-0.74,2.62-1.31,3.84-1.31l-0.48,1.98c-1.84,0-3.36,1.4-3.36,3.18v5.61h-1.98V17.19h1.98V18.27z"/>
<path d="M64.76,25.7c-0.18,0.23-0.37,0.46-0.58,0.67c-1.04,1.04-2.42,1.59-3.89,1.59s-2.88-0.55-3.91-1.59    c-1.04-1.06-1.61-2.44-1.61-3.91s0.58-2.85,1.61-3.91c1.04-1.04,2.44-1.59,3.91-1.59s2.85,0.55,3.89,1.59    c0.21,0.21,0.39,0.41,0.55,0.64l-1.59,1.17c-0.64-0.87-1.68-1.47-2.85-1.47c-1.96,0-3.54,1.61-3.54,3.57s1.59,3.57,3.54,3.57    c1.17,0,2.21-0.6,2.85-1.5L64.76,25.7z"/>
<path d="M76.72,22.07v5.66h-1.98v-5.66c0-1.73-1.38-3.15-3.11-3.15c-1.7,0-3.11,1.43-3.11,3.15v5.66h-1.98V10.84h1.98v7.36    c0.9-0.69,1.98-1.22,3.11-1.22c1.36,0,2.65,0.51,3.61,1.47C76.19,19.42,76.72,20.69,76.72,22.07z"/>
<path d="M79.27,14.18c0-0.71,0.58-1.29,1.31-1.29c0.71,0,1.29,0.58,1.29,1.29s-0.58,1.31-1.29,1.31    C79.85,15.49,79.27,14.89,79.27,14.18z M79.59,17.19h1.98v10.54h-1.98V17.19z"/>
<path d="M85.73,24.23v-5.15h-1.56v-1.89h1.56v-4.07h1.98v4.07h3.24v1.89h-3.24v5.11c0,0.85,0.74,1.66,1.56,1.66h1.77l0.51,1.89    h-2.32C87.3,27.73,85.73,26.19,85.73,24.23z"/>
<path d="M95.9,26.42c0,0.71-0.58,1.31-1.29,1.31c-0.74,0-1.31-0.6-1.31-1.31s0.58-1.31,1.31-1.31    C95.33,25.11,95.9,25.7,95.9,26.42z"/>
<path d="M97.51,23.22v-6.03h1.98v6.03c0,1.54,1.29,2.81,2.9,2.81c1.59,0,2.9-1.27,2.9-2.81v-6.03h1.98v6.03    c0,1.29-0.53,2.49-1.45,3.38c-0.92,0.9-2.14,1.36-3.43,1.36c-1.31,0-2.53-0.46-3.45-1.36C98.02,25.7,97.51,24.51,97.51,23.22z"/>
<path d="M117.37,24.62c0,0.6-0.16,1.17-0.51,1.66c-0.32,0.48-0.78,0.85-1.4,1.15c-0.55,0.25-1.22,0.39-1.89,0.39    c-0.37,0-0.71-0.05-1.08-0.12c-1.15-0.23-2.23-0.74-3.15-1.52l1.24-1.36c1.22,1.04,2.25,1.24,2.9,1.24c0.44,0,0.85-0.09,1.22-0.25    c0.3-0.14,0.83-0.48,0.83-1.2s-0.62-1.15-2.05-1.4c-0.07-0.02-1.82-0.35-2.46-0.71c-0.97-0.55-1.47-1.4-1.47-2.46    c0-0.58,0.18-1.13,0.51-1.61c0.3-0.41,0.71-0.74,1.31-1.01c0.55-0.25,1.15-0.39,1.82-0.39c0.25,0,0.53,0.02,0.78,0.05    c1.01,0.16,2,0.6,2.83,1.27l-1.15,1.33c-1.04-0.81-1.93-0.92-2.37-0.92c-0.41,0-0.81,0.07-1.13,0.23    c-0.46,0.23-0.76,0.64-0.76,1.06c0,0.69,0.55,1.06,1.96,1.36c0.02,0,1.91,0.41,2.44,0.71c0.62,0.32,0.85,0.58,1.1,0.9    C117.21,23.47,117.37,24.02,117.37,24.62z"/>
<path d="M26.69,23.31h-3.6l-4.6-10.8c0.23-0.58,0.37-1.2,0.37-1.86c0-2.32-1.61-4.26-3.77-4.79V1.18   C15.1,0.53,14.57,0,13.91,0c-0.65,0-1.18,0.53-1.18,1.18v4.67c-2.16,0.53-3.77,2.47-3.77,4.79c0,0.68,0.14,1.34,0.39,1.93   L4.74,23.31H1.29c-0.65,0-1.18,0.53-1.18,1.18c0,0.65,0.53,1.18,1.18,1.18h2.43l-1.05,2.45c-0.36,0.83,0.02,1.79,0.84,2.16   C3.26,31.21,3.1,32.19,3.1,33.2c0,0.98,0.13,1.92,0.38,2.82l5.36-12.21l3.69-8.44c0.56,0.34,1.91,0.4,2.51,0.08l3.74,8.5   l5.17,11.74c0.19-0.8,0.29-1.63,0.29-2.49c0-1.06-0.16-2.08-0.45-3.04c1.04-0.31,1.61-1.44,1.25-2.28l-0.94-2.22h2.59   c0.65,0,1.18-0.53,1.18-1.18C27.88,23.84,27.35,23.31,26.69,23.31 M13.91,13.27c-1.45,0-2.62-1.17-2.62-2.62   c0-1.45,1.17-2.62,2.62-2.62c1.45,0,2.62,1.17,2.62,2.62C16.54,12.1,15.36,13.27,13.91,13.27"/>
<polygon points="17.99,25.67 16.95,23.31 10.61,23.31 9.57,25.67  "/>
</svg>

